{"title":"Sleepy Hollow S03E14 Into the Wild 1080P WEB-DL DD5 1 H 264","uid":13926863,"size":1888358510,"categoryP":"video","categoryS":"hd___tv_shows","magnet":"?xt=urn:btih:7a640d7178274a5dec55a2ebb665f3a79e53260f&amp;dn=Sleepy+Hollow+S03E14+Into+the+Wild+1080P+WEB-DL+DD5+1+H+264&amp;tr=udp%3A%2F%2Ftracker.leechers-paradise.org%3A6969&amp;tr=udp%3A%2F%2Fzer0day.ch%3A1337&amp;tr=udp%3A%2F%2Fopen.demonii.com%3A1337&amp;tr=udp%3A%2F%2Ftracker.coppersurfer.tk%3A6969&amp;tr=udp%3A%2F%2Fexodus.desync.com%3A6969","seeders":2,"leechers":4,"uploader":"jmanwf","files":2,"time":1458387982,"description":"Description\r\nOn an FBI team-building day, Abbie and Sophie come face to face with a monster that may finally blow their cover with Reynolds. Meanwhile, Jenny and Joe find themselves in possession of something precious and Crane discovers that the symbol from the Catacombs may be more important than he realized.\r\n\r\n\r\n\r\n\r\nVideo\r\nID : 2\r\nFormat : AVC\r\nFormat/Info : Advanced Video Codec\r\nFormat profile :   \r\nFormat settings, CABAC : Yes\r\nFormat settings, ReFrames : 4 frames\r\nCodec ID : avc1\r\nCodec ID/Info : Advanced Video Coding\r\nDuration : 44mn 27s\r\nBit rate : 5 148 Kbps\r\nWidth : 1 920 pixels\r\nHeight : 1 080 pixels\r\nDisplay aspect ratio : 16:9\r\nFrame rate mode : Constant\r\nFrame rate : 23.976 fps\r\nColor space : YUV\r\nChroma subsampling : 4:2:0\r\nBit depth : 8 bits\r\nScan type : Progressive\r\nBits/(Pixel*Frame) : 0.104\r\nStream size : 1.60 GiB (91%)\r\nLanguage : English\r\nEncoded date : UTC 2016-03-19 10:04:45\r\nTagged date : UTC 2016-03-19 10:09:50\r\nColor range : Limited\r\nColor primaries : BT.709\r\nTransfer characteristics : BT.709\r\nMatrix coefficients : BT.709\r\n\r\nAudio #1\r\nID : 1\r\nFormat : AAC\r\nFormat/Info : Advanced Audio Codec\r\nFormat profile : LC\r\nCodec ID : 40\r\nDuration : 44mn 27s\r\nBit rate mode : Variable\r\nBit rate : 126 Kbps\r\nMaximum bit rate : 215 Kbps\r\nChannel(s) : 2 channels\r\nChannel positions : Front: L R\r\nSampling rate : 48.0 KHz\r\nCompression mode : Lossy\r\nStream size : 40.0 MiB (2%)\r\nLanguage : English\r\nEncoded date : UTC 2016-03-19 10:04:45\r\nTagged date : UTC 2016-03-19 10:09:50\r\n\r\nAudio #2\r\nID : 3\r\nFormat : AC-3\r\nFormat/Info : Audio Coding 3\r\nMode extension : CM (complete main)\r\nFormat settings, Endianness : Big\r\nCodec ID : ac-3\r\nDuration : 44mn 27s\r\nBit rate mode : Constant\r\nBit rate : 384 Kbps\r\nChannel(s) : 6 channels\r\nChannel positions : Front: L C R, Side: L R, LFE\r\nSampling rate : 48.0 KHz\r\nBit depth : 16 bits\r\nCompression mode : Lossy\r\nStream size : 122 MiB (7%)\r\nLanguage : English\r\nEncoded date : UTC 2016-03-19 10:04:45\r\nTagged date : UTC 2016-03-19 10:09:50\r\n\r\nText\r\nID : 4-CC1\r\nFormat : EIA-608\r\nMuxing mode : Final Cut\r\nCodec ID : c608\r\nDuration : 44mn 26s\r\nBit rate mode : Constant\r\nStream size : 0.00 Byte (0%)\r\nLanguage : English\r\nEncoded date : UTC 2016-03-19 10:04:45\r\nTagged date : UTC 2016-03-19 10:05:10","torrent":{"xt":"urn:btih:7a640d7178274a5dec55a2ebb665f3a79e53260f","amp;dn":"Sleepy+Hollow+S03E14+Into+the+Wild+1080P+WEB-DL+DD5+1+H+264","amp;tr":["udp%3A%2F%2Ftracker.leechers-paradise.org%3A6969","udp%3A%2F%2Fzer0day.ch%3A1337","udp%3A%2F%2Fopen.demonii.com%3A1337","udp%3A%2F%2Ftracker.coppersurfer.tk%3A6969","udp%3A%2F%2Fexodus.desync.com%3A6969"],"infoHash":"7a640d7178274a5dec55a2ebb665f3a79e53260f","infoHashBuffer":{"type":"Buffer","data":[122,100,13,113,120,39,74,93,236,85,162,235,182,101,243,167,158,83,38,15]},"announce":[],"urlList":[]}}